<svg xmlns="http://www.w3.org/2000/svg" viewBox="0 0 592.83 237.96"><title>pyxis-logo</title><path d="M520.7,59.58c-9.28-2.6-11.51-6.68-11.51-8.91,0-5.57,4.82-10,17.82-10,3.71,0,17.45,1.49,28.58,9.28a12.9,12.9,0,0,0,7.8,3,7.38,7.38,0,0,0,5.2-1.86l15.22-19.3c2.59-3.72,4.08-6.32,4.08-8.54A6,6,0,0,0,586,19.11c-15.59-15.59-41.2-21.9-62.36-21.9-29.17,0-55.33,13-62.36,39.22V8.72c0-5.2-4.09-8.17-8.54-8.17H418.24a10.49,10.49,0,0,0-3.39.52,14.5,14.5,0,0,0-2.17-.15h-33c-7.05,0-8.91.37-13.36,7.06L345.49,45.47h-.74L324.33,8C319.87,1.29,318,.92,311,.92H290.52A9,9,0,0,0,288,.55H252.31c-7.05,0-9.65,3.34-11.14,8.17L210,117.86h-.74L199.6,70.71,184,8.72c-1.49-4.83-3-8.17-9.29-8.17H135c-5.2,0-8.54,3-6.68,9.28l1.26,4.24C120.3,4.35,107-1.68,89.35-1.68c-7.43,0-27.84.75-38.24,11.14h-.74V6.86c0-4.82-3.71-6.31-7-6.31h-36c-5.2,0-7.06,3-7.06,7.8V227c0,4.83,3.34,7.8,8.54,7.8H43.32c4.45,0,8.16-2.6,8.16-7.8V163.52l.75.37C60.76,169.83,77.1,171,83.78,171c42,0,62.37-27.1,62.37-65.34V69.85l26.72,90c1.48,4.45,3.71,7.79,9.65,7.79h10.39l-16.33,57.55c-2.6,7,1.11,10,6.31,10H217c5.2,0,8.54-3.34,10-7.8L287,37.22l28.46,43.52-48.26,75.73a8.11,8.11,0,0,0-1.49,4.82c0,3.35,2.6,6.31,9.29,6.31H305.4c5.94,0,9.28-.74,14.1-7.79l24.88-46.4h.74l25.61,46.4c4.83,7.05,8.17,7.79,14.11,7.79h30.44c.59,0,1.13,0,1.66-.07s.85.07,1.3.07h34.53c5.19,0,8.54-3,8.54-7.79V145.4c16.31,19.93,41,24.8,63.84,24.8,32.67,0,67.94-15.59,67.94-54.94C593.09,77.4,549.65,67.74,520.7,59.58Zm-425.78,46c0,11.88-6.31,20.79-21.53,20.79-13.74,0-21.91-8.91-21.91-20.79V64.77C51.48,53.27,58.17,44,73.39,44c14.1,0,21.53,8.91,21.53,20.78ZM375.56,80.74,410.08,27.5V135.75ZM525.15,126.4c-8.54,0-19.3-2.23-28.21-11.88-4.46-4.46-8.17-8.17-14.85-3.71l-20.78,13.74V64.48c4.78,16,18.75,26.54,41.2,33.33,20.78,6.69,38.23,8.54,38.23,18.57C540.74,123.06,533.69,126.4,525.15,126.4Z" transform="translate(-0.25 2.79)"/></svg>
